<svg width="79" height="64" viewBox="0 0 79 64" fill="none" xmlns="http://www.w3.org/2000/svg">
<g id="Artboard 1 1">
<g id="Group">
<path id="Vector" d="M1.69531 26.2519C1.69531 26.1581 1.72494 26.0766 1.78173 26.0075C1.83852 25.9408 1.92494 25.9062 2.04099 25.9062H4.34716C4.42618 25.9062 4.51013 25.9383 4.59902 26.0001C4.68791 26.0618 4.73235 26.1458 4.73235 26.2519V37.2174C4.73235 37.447 4.60395 37.563 4.34716 37.563H2.04099C1.81136 37.563 1.69531 37.447 1.69531 37.2174V26.2519Z" fill="white"/>
<path id="Vector_2" d="M6.35872 27.7371C6.42539 27.6803 6.49946 27.6432 6.57353 27.6284C6.65008 27.6136 6.72168 27.6062 6.78835 27.6062H7.97353C8.06736 27.6062 8.14884 27.6235 8.21798 27.6581C8.28711 27.6926 8.3439 27.7371 8.39082 27.7963C8.43773 27.8531 8.47477 27.9198 8.5044 27.9914C8.53156 28.0655 8.56119 28.1395 8.58588 28.2186L8.75131 28.9074C8.83032 28.7445 8.95625 28.5791 9.13156 28.4062C9.30687 28.2334 9.52415 28.0778 9.78341 27.9371C10.0427 27.7963 10.3414 27.6803 10.6822 27.5889C11.0229 27.4976 11.4007 27.4531 11.8204 27.4531C12.418 27.4531 12.9488 27.5692 13.418 27.7988C13.8871 28.0284 14.2846 28.342 14.6106 28.7371C14.9365 29.1346 15.1859 29.5963 15.3562 30.1272C15.5266 30.6581 15.6106 31.2235 15.6106 31.826V36.9667C15.6106 37.1667 15.5686 37.3149 15.4822 37.4186C15.3958 37.5198 15.2575 37.5716 15.0698 37.5716H13.2575C13.0328 37.5716 12.8772 37.5346 12.7933 37.4581C12.7093 37.3815 12.6674 37.2334 12.6674 37.0136V31.905C12.6674 31.6803 12.6155 31.4655 12.5143 31.2655C12.413 31.063 12.2772 30.8877 12.1093 30.7321C11.9414 30.5791 11.7513 30.4556 11.5414 30.3667C11.3291 30.2778 11.1143 30.2334 10.8945 30.2334C10.7069 30.2334 10.5143 30.2753 10.3167 30.3593C10.1217 30.4433 9.93897 30.5593 9.776 30.7099C9.61057 30.8581 9.4723 31.0334 9.36119 31.2358C9.25008 31.4383 9.18588 31.6556 9.16859 31.8926V36.9939C9.16859 37.0828 9.15131 37.1716 9.11674 37.2605C9.08218 37.3494 9.03279 37.4161 8.96366 37.4655C8.89699 37.5074 8.83032 37.5371 8.77106 37.5519C8.7118 37.5667 8.6402 37.5741 8.56366 37.5741H6.79082C6.56613 37.5741 6.40316 37.5198 6.3044 37.4087C6.20563 37.3 6.15625 37.1519 6.15625 36.9692V28.1914C6.15625 28.0926 6.17847 28.0013 6.22292 27.9173C6.26736 27.8334 6.32909 27.7692 6.4081 27.7223L6.36119 27.7445L6.35872 27.7371Z" fill="white"/>
<path id="Vector_3" d="M17.6648 27.7355C17.6648 27.2491 17.7685 26.7923 17.9784 26.3627C18.1883 25.9331 18.4673 25.5578 18.8179 25.2368C19.1685 24.9158 19.571 24.6615 20.0278 24.4763C20.4821 24.2911 20.9586 24.1973 21.4549 24.1973H21.613C21.7907 24.1973 21.929 24.2516 22.0253 24.3578C22.1216 24.4639 22.171 24.6121 22.171 24.8022V26.301C22.171 26.496 22.1191 26.6565 22.0179 26.7849C21.9167 26.9133 21.7809 26.9775 21.613 26.9775H21.4549C21.3463 26.9775 21.2401 26.9973 21.1414 27.0368C21.0426 27.0763 20.9537 27.1306 20.8747 27.1973C20.7957 27.2664 20.734 27.3454 20.687 27.4368C20.6401 27.5281 20.6179 27.6294 20.6179 27.738V28.6417H21.85C22.0278 28.6417 22.1661 28.6911 22.2623 28.7874C22.3586 28.8837 22.408 29.0368 22.408 29.2467V30.6837C22.408 30.9084 22.3586 31.0738 22.2623 31.1775C22.1661 31.2812 22.0278 31.3355 21.85 31.3355H20.6179V36.9627C20.6179 37.1627 20.5512 37.3108 20.4179 37.4146C20.2846 37.5158 20.1389 37.5676 19.9833 37.5676H18.287C18.0994 37.5676 17.9488 37.5084 17.8352 37.3899C17.7216 37.2713 17.6673 37.1306 17.6673 36.9627V31.3331H16.8599C16.6772 31.3331 16.529 31.2812 16.4179 31.1775C16.3043 31.0738 16.25 30.9084 16.25 30.6837V29.2467C16.25 29.0368 16.3068 28.8837 16.4179 28.7874C16.529 28.6911 16.6772 28.6417 16.8599 28.6417H17.6673V27.738L17.6648 27.7355Z" fill="white"/>
<path id="Vector_4" d="M22.9297 24.2358C22.9297 24.016 22.9766 23.8605 23.0704 23.7691C23.1643 23.6778 23.3124 23.6309 23.5099 23.6309H25.3297C25.5124 23.6309 25.6606 23.6778 25.7741 23.7691C25.8877 23.8605 25.942 24.016 25.942 24.2358V25.7667C25.942 25.8284 25.9272 25.8975 25.9001 25.9716C25.8704 26.0457 25.8309 26.1148 25.7791 26.1839C25.7272 26.2506 25.663 26.3074 25.5865 26.3518C25.5099 26.3963 25.426 26.4185 25.3322 26.4185H23.5124C23.1247 26.4185 22.9322 26.2012 22.9322 25.7667V24.2358H22.9297ZM22.9297 28.2086C22.9297 28.0407 22.9766 27.8975 23.0704 27.7765C23.1643 27.6555 23.3124 27.5963 23.5099 27.5963H25.3075C25.3692 27.5963 25.4383 27.6111 25.5124 27.6383C25.5865 27.6679 25.6531 27.7099 25.7173 27.7642C25.7791 27.8185 25.8334 27.8827 25.8778 27.9568C25.9223 28.0309 25.9445 28.1123 25.9445 28.2086V36.9593C25.9445 37.1593 25.8902 37.3099 25.7791 37.4111C25.668 37.5123 25.5124 37.5642 25.3075 37.5642H23.5099C23.1223 37.5642 22.9297 37.3642 22.9297 36.9593V28.2086Z" fill="white"/>
<path id="Vector_5" d="M27.0355 27.7371C27.1047 27.6803 27.1763 27.6432 27.2503 27.6284C27.3269 27.6136 27.3985 27.6062 27.4676 27.6062H28.6528C28.7466 27.6062 28.8281 27.6235 28.8948 27.6581C28.9639 27.6926 29.0207 27.7371 29.0676 27.7963C29.1145 27.8531 29.1516 27.9198 29.1812 27.9914C29.2108 28.0655 29.238 28.1395 29.2627 28.2186L29.4281 28.9074C29.5071 28.7445 29.6331 28.5791 29.8084 28.4062C29.9837 28.2334 30.201 28.0778 30.4602 27.9371C30.7195 27.7963 31.0182 27.6803 31.359 27.5889C31.6997 27.4976 32.0775 27.4531 32.4973 27.4531C33.0948 27.4531 33.6257 27.5692 34.0948 27.7988C34.5639 28.0284 34.9615 28.342 35.2874 28.7371C35.6158 29.1346 35.8627 29.5963 36.0331 30.1272C36.2034 30.6581 36.2874 31.2235 36.2874 31.826V36.9667C36.2874 37.1667 36.2429 37.3149 36.159 37.4186C36.0726 37.5198 35.9343 37.5716 35.7466 37.5716H33.9343C33.7096 37.5716 33.5541 37.5346 33.4701 37.4581C33.3862 37.3815 33.3442 37.2334 33.3442 37.0136V31.905C33.3442 31.6803 33.2923 31.4655 33.1911 31.2655C33.0899 31.063 32.9541 30.8877 32.7862 30.7321C32.6182 30.5791 32.4281 30.4556 32.2158 30.3667C32.0034 30.2778 31.7886 30.2334 31.5689 30.2334C31.3812 30.2334 31.1886 30.2753 30.9911 30.3593C30.796 30.4433 30.6133 30.5593 30.4503 30.7099C30.2849 30.8581 30.1466 31.0334 30.0331 31.2358C29.9195 31.4383 29.8553 31.6556 29.8405 31.8926V36.9939C29.8405 37.0828 29.8232 37.1716 29.7886 37.2605C29.7541 37.3494 29.7047 37.4161 29.6355 37.4655C29.5664 37.5074 29.5022 37.5371 29.4429 37.5519C29.3837 37.5667 29.3121 37.5741 29.2355 37.5741H27.4627C27.238 37.5741 27.075 37.5198 26.9763 37.4087C26.8775 37.3 26.8281 37.1519 26.8281 36.9692V28.1914C26.8281 28.0926 26.8503 28.0013 26.8948 27.9173C26.9392 27.8334 27.001 27.7692 27.08 27.7223L27.0331 27.7445L27.0355 27.7371Z" fill="white"/>
<path id="Vector_6" d="M37.3828 24.2358C37.3828 24.016 37.4297 23.8605 37.5236 23.7691C37.6174 23.6778 37.7631 23.6309 37.9631 23.6309H39.7853C39.968 23.6309 40.1161 23.6778 40.2297 23.7691C40.3408 23.8605 40.3976 24.016 40.3976 24.2358V25.7667C40.3976 25.8284 40.3828 25.8975 40.3556 25.9716C40.326 26.0457 40.2865 26.1148 40.2347 26.1839C40.1828 26.2506 40.1186 26.3074 40.0421 26.3518C39.9655 26.3963 39.8816 26.4185 39.7878 26.4185H37.9655C37.5779 26.4185 37.3853 26.2012 37.3853 25.7667V24.2358H37.3828ZM37.3828 28.2086C37.3828 28.0407 37.4297 27.8975 37.5236 27.7765C37.6174 27.6555 37.7631 27.5963 37.9631 27.5963H39.7606C39.8223 27.5963 39.8915 27.6111 39.9655 27.6383C40.0396 27.6679 40.1063 27.7099 40.1705 27.7642C40.2322 27.8185 40.2865 27.8827 40.331 27.9568C40.3754 28.0309 40.3976 28.1123 40.3976 28.2086V36.9593C40.3976 37.1593 40.3433 37.3099 40.2322 37.4111C40.1211 37.5123 39.9655 37.5642 39.7606 37.5642H37.9631C37.5754 37.5642 37.3828 37.3642 37.3828 36.9593V28.2086Z" fill="white"/>
<path id="Vector_7" d="M42.3104 26.0431C42.3104 25.8801 42.3647 25.7591 42.4709 25.6776C42.577 25.5961 42.7301 25.5196 42.9301 25.4455L44.7128 24.8258C44.7375 24.8208 44.7647 24.8184 44.7869 24.8184H44.8536C45.0462 24.8184 45.177 24.8752 45.2412 24.9863C45.3054 25.0998 45.34 25.248 45.34 25.4307L45.3326 27.5887H46.4091C46.577 27.5887 46.7128 27.6381 46.8166 27.7369C46.9203 27.8356 46.9721 27.9863 46.9721 28.1838V29.6974C46.9721 29.9171 46.9203 30.0776 46.8166 30.1813C46.7104 30.2826 46.5746 30.3344 46.4091 30.3344H45.3326L45.34 36.9591C45.34 37.1591 45.2832 37.3097 45.1672 37.411C45.0511 37.5122 44.8931 37.564 44.6882 37.564H42.9153C42.5128 37.564 42.3104 37.364 42.3104 36.9591L42.303 30.3344H41.4956C41.0931 30.3344 40.8906 30.1221 40.8906 29.6998V28.1863C40.8906 27.7887 41.0931 27.5887 41.4956 27.5887H42.303L42.3104 26.0431Z" fill="white"/>
<g id="Group_2">
<path id="Vector_8" d="M1.70312 41.4805C1.70312 41.3866 1.73522 41.3051 1.79695 41.236C1.85868 41.1693 1.9451 41.1348 2.05621 41.1348H4.37967C4.46856 41.1348 4.55004 41.1669 4.62411 41.2286C4.69819 41.2903 4.73522 41.3743 4.74263 41.4805V50.0187H9.05868C9.15251 50.0187 9.23399 50.0508 9.30312 50.1125C9.37226 50.1743 9.40436 50.2607 9.40436 50.3718V52.436C9.40436 52.5249 9.37473 52.6064 9.313 52.6804C9.25374 52.7545 9.16732 52.794 9.05868 52.799H2.05127C1.82164 52.799 1.70559 52.6829 1.70559 52.4533V41.4805H1.70312Z" fill="white"/>
<path id="Vector_9" d="M18.4767 51.6027C18.015 52.0274 17.4989 52.3583 16.9236 52.5953C16.3483 52.8324 15.7384 52.9534 15.094 52.9534C14.3755 52.9534 13.6989 52.8225 13.0619 52.5608C12.4224 52.299 11.8644 51.9361 11.3829 51.4743C10.9014 51.0126 10.5187 50.4669 10.2372 49.8373C9.95324 49.2101 9.8125 48.5262 9.8125 47.7879C9.8125 47.3262 9.86929 46.8818 9.9804 46.4497C10.0915 46.0176 10.252 45.6151 10.4594 45.2373C10.6668 44.8595 10.9162 44.5138 11.2125 44.1978C11.5088 43.8817 11.8397 43.6102 12.2051 43.3855C12.5705 43.1608 12.9681 42.9855 13.3977 42.8595C13.8248 42.7336 14.2792 42.6719 14.7557 42.6719C15.1903 42.6719 15.61 42.7287 16.0199 42.8447C16.4273 42.9608 16.8125 43.1213 17.1705 43.3311C17.5285 43.541 17.8569 43.7904 18.1557 44.0842C18.4545 44.378 18.7113 44.6966 18.9236 45.0472C19.1384 45.3953 19.3039 45.7657 19.4224 46.1608C19.5384 46.5558 19.6002 46.9632 19.6002 47.3805C19.6002 47.6521 19.5952 47.8743 19.5878 48.0472C19.5804 48.22 19.5409 48.3583 19.4668 48.4595C19.3927 48.5608 19.2718 48.6324 19.1014 48.6719C18.931 48.7114 18.6816 48.7311 18.3532 48.7311H12.7039C12.7557 49.0669 12.8619 49.3459 13.0224 49.5706C13.1829 49.7953 13.3656 49.9756 13.5755 50.1089C13.7853 50.2422 14.0076 50.3385 14.2421 50.3953C14.4767 50.4521 14.6989 50.4818 14.9088 50.4818C15.0965 50.4818 15.2915 50.462 15.489 50.4225C15.6866 50.383 15.8792 50.3311 16.0668 50.2645C16.252 50.2003 16.4224 50.1237 16.5779 50.0373C16.7335 49.9509 16.8569 49.8595 16.9508 49.7657C17.0347 49.6966 17.1063 49.6472 17.1656 49.6126C17.2248 49.5781 17.2915 49.5608 17.3582 49.5608C17.4248 49.5608 17.4964 49.583 17.5656 49.6324C17.6347 49.6793 17.7162 49.7484 17.8051 49.8373L18.6372 50.7781C18.694 50.8472 18.731 50.9089 18.7458 50.9632C18.7606 51.0176 18.7705 51.0743 18.7705 51.1311C18.7705 51.2348 18.7409 51.3262 18.6841 51.4027C18.6273 51.4793 18.5582 51.546 18.4816 51.6027H18.4767ZM14.7014 45.0645C14.4964 45.0645 14.2989 45.1064 14.1088 45.1855C13.9187 45.2669 13.7384 45.3756 13.5705 45.5114C13.4026 45.6472 13.252 45.8027 13.1187 45.9731C12.9853 46.1459 12.8767 46.3213 12.7927 46.499H16.8026C16.6915 46.2966 16.573 46.1064 16.4446 45.9336C16.3162 45.7608 16.1705 45.6101 16.0051 45.4793C15.8397 45.3484 15.652 45.2472 15.4397 45.1731C15.2273 45.099 14.9804 45.062 14.6989 45.062L14.7014 45.0645Z" fill="white"/>
<path id="Vector_10" d="M30.7093 52.2151C30.7093 52.304 30.6945 52.3879 30.6624 52.4694C30.6303 52.5509 30.5785 52.6151 30.5044 52.662C30.4476 52.7188 30.3785 52.7558 30.2995 52.7706C30.2204 52.7855 30.1538 52.7929 30.0945 52.7929H28.5488C28.4402 52.7929 28.3488 52.778 28.2822 52.7509C28.213 52.7213 28.1587 52.6818 28.1167 52.6299C28.0748 52.5781 28.0402 52.5139 28.0106 52.4373C27.9834 52.3608 27.9513 52.2793 27.9217 52.1904L27.8204 51.8373C27.6797 51.978 27.5192 52.1163 27.339 52.2521C27.1587 52.3879 26.9587 52.5089 26.7439 52.6176C26.5266 52.7237 26.2945 52.8126 26.0451 52.8768C25.7958 52.941 25.539 52.9756 25.2723 52.9756C24.7958 52.9756 24.339 52.9163 23.9019 52.7953C23.4649 52.6743 23.0575 52.504 22.6772 52.2818C22.297 52.0595 21.9538 51.7929 21.6451 51.4817C21.3365 51.1706 21.0698 50.8225 20.8501 50.4422C20.6279 50.0595 20.455 49.6472 20.3365 49.2052C20.2155 48.7632 20.1562 48.3015 20.1562 47.82C20.1562 47.0916 20.2896 46.4176 20.5563 45.7904C20.8229 45.1657 21.1859 44.6225 21.6476 44.1583C22.1093 43.6966 22.6501 43.3311 23.2723 43.0669C23.8945 42.8027 24.5612 42.6719 25.2748 42.6719C25.5982 42.6719 25.9019 42.7089 26.1809 42.7805C26.46 42.8546 26.7167 42.9534 26.9513 43.0793C27.1834 43.2052 27.3933 43.3558 27.5834 43.5311C27.7735 43.7064 27.9365 43.8966 28.0772 44.099L28.3044 43.3855C28.3562 43.2546 28.4007 43.1484 28.4353 43.0669C28.4698 42.9855 28.5069 42.9262 28.5464 42.8867C28.5859 42.8472 28.6328 42.8225 28.6921 42.8077C28.7488 42.7953 28.8303 42.7879 28.934 42.7879H30.1019C30.1612 42.7879 30.2279 42.7953 30.3069 42.8101C30.3859 42.825 30.4525 42.862 30.5118 42.9213C30.5859 42.9781 30.6377 43.0447 30.6698 43.1188C30.7019 43.1929 30.7167 43.2743 30.7167 43.3682V52.2126L30.7093 52.2151ZM22.9785 47.82C22.9785 48.1657 23.0328 48.4892 23.139 48.7904C23.2451 49.0916 23.3982 49.3509 23.5982 49.5706C23.7982 49.7904 24.0377 49.9657 24.3167 50.0941C24.5958 50.2225 24.9069 50.2867 25.2476 50.2867C25.5884 50.2867 25.9242 50.2225 26.2254 50.0941C26.5266 49.9657 26.7884 49.7929 27.0106 49.5706C27.2328 49.3509 27.4056 49.0916 27.5316 48.7904C27.6575 48.4892 27.7192 48.1657 27.7192 47.82C27.7192 47.4743 27.6575 47.1657 27.5316 46.862C27.4056 46.5583 27.2328 46.2916 27.0106 46.062C26.7884 45.8324 26.5266 45.6496 26.2254 45.5163C25.9242 45.383 25.5982 45.3163 25.2476 45.3163C24.897 45.3163 24.5982 45.383 24.3167 45.5163C24.0377 45.6496 23.7982 45.8324 23.5982 46.062C23.4007 46.2916 23.2476 46.5608 23.139 46.862C23.0328 47.1657 22.9785 47.4842 22.9785 47.82Z" fill="white"/>
<path id="Vector_11" d="M31.8125 43.4116C31.8125 43.3128 31.8298 43.2264 31.8668 43.1523C31.9039 43.0782 31.9508 43.019 32.0125 42.9721C32.0718 42.9252 32.1409 42.8906 32.2174 42.8659C32.294 42.8437 32.3681 42.8313 32.4421 42.8313H33.6273C33.7582 42.8313 33.8619 42.8708 33.9409 42.9499C34.0199 43.0289 34.0866 43.1276 34.1409 43.2486C34.1952 43.3696 34.2446 43.5029 34.2866 43.6486C34.3286 43.7943 34.3779 43.9375 34.4347 44.0733C34.5927 43.9005 34.7483 43.7301 34.9014 43.5622C35.0545 43.3943 35.2224 43.2462 35.4002 43.1153C35.5779 42.9844 35.773 42.8782 35.9853 42.7968C36.1977 42.7153 36.4397 42.6758 36.7113 42.6758C36.9829 42.6758 37.2471 42.698 37.4693 42.7375C37.6915 42.7795 37.9014 42.8412 38.1014 42.9227C38.3014 43.0042 38.4989 43.1079 38.694 43.2338C38.889 43.3597 39.1039 43.5054 39.3335 43.6733C39.5582 43.8042 39.6718 43.9573 39.6718 44.135C39.6718 44.2511 39.6273 44.3844 39.5384 44.535L38.8248 45.7523C38.6841 45.9573 38.5088 46.0585 38.2989 46.0585C38.1952 46.0585 38.0767 46.0289 37.9458 45.9721C37.7211 45.7523 37.4915 45.5894 37.2594 45.4807C37.0273 45.3745 36.7606 45.3202 36.4619 45.3202C36.2569 45.3202 36.0792 45.3499 35.9236 45.4066C35.7705 45.4634 35.6298 45.5449 35.5039 45.6486C35.3779 45.7548 35.2619 45.8783 35.1508 46.0264C35.0421 46.1721 34.931 46.335 34.8224 46.5128V52.1943C34.8224 52.3943 34.773 52.5424 34.6767 52.6462C34.5804 52.7474 34.4199 52.7992 34.1952 52.7992H32.4298C32.0224 52.7992 31.8174 52.5992 31.8174 52.1943V43.4116H31.8125Z" fill="white"/>
<path id="Vector_12" d="M40.2621 42.9681C40.3312 42.9113 40.4028 42.8742 40.4769 42.8594C40.5535 42.8446 40.6251 42.8372 40.6917 42.8372H41.8769C41.9707 42.8372 42.0522 42.8545 42.1189 42.889C42.188 42.9236 42.2448 42.9681 42.2917 43.0273C42.3386 43.0841 42.3757 43.1508 42.4053 43.2224C42.4349 43.2965 42.4621 43.3705 42.4868 43.4495L42.6522 44.1384C42.7312 43.9755 42.8572 43.81 43.0325 43.6372C43.2078 43.4644 43.4251 43.3088 43.6843 43.1681C43.9436 43.0273 44.2423 42.9113 44.5831 42.8199C44.9238 42.7286 45.3016 42.6816 45.7214 42.6816C46.3189 42.6816 46.8498 42.7977 47.3189 43.0248C47.788 43.2545 48.1856 43.5681 48.5115 43.9631C48.8374 44.3607 49.0868 44.8224 49.2572 45.3532C49.4275 45.8841 49.5115 46.4495 49.5115 47.052V52.1927C49.5115 52.3927 49.4695 52.5409 49.3831 52.6446C49.2967 52.7458 49.1584 52.7977 48.9707 52.7977H47.1584C46.9337 52.7977 46.7781 52.7607 46.6942 52.6841C46.6102 52.6076 46.5683 52.4594 46.5683 52.2421V47.1335C46.5683 46.9088 46.5164 46.6965 46.4152 46.494C46.3139 46.2915 46.1781 46.1137 46.0102 45.9607C45.8423 45.8076 45.6522 45.6841 45.4423 45.5952C45.23 45.5063 45.0152 45.4619 44.7954 45.4619C44.6053 45.4619 44.4152 45.5039 44.2177 45.5878C44.0201 45.6718 43.8399 45.7878 43.6744 45.936C43.509 46.0841 43.3707 46.2594 43.2596 46.4619C43.146 46.6619 43.0819 46.8816 43.067 47.1162V52.2174C43.067 52.3063 43.0498 52.3952 43.0152 52.4841C42.9806 52.573 42.9288 52.6421 42.8621 52.689C42.793 52.731 42.7288 52.7607 42.6695 52.7755C42.6102 52.7903 42.5411 52.7977 42.4621 52.7977H40.6893C40.4646 52.7977 40.3016 52.7434 40.2028 52.6323C40.1041 52.5236 40.0547 52.3755 40.0547 52.1927V43.415C40.0547 43.3162 40.0769 43.2248 40.1214 43.1409C40.1658 43.0569 40.2275 42.9928 40.3065 42.9458L40.2596 42.9681H40.2621Z" fill="white"/>
</g>
<path id="Vector_13" d="M61.1779 28.4072L52.0446 41.2418C52.0446 41.2418 51.7607 41.6319 52.2915 41.7208H60.2273C60.2273 41.7208 61.8594 41.5825 62.8866 39.6665L70.8989 28.3307C70.8989 28.3307 70.9853 28.2072 70.9656 28.1035H61.3952C61.3952 28.1035 61.2273 28.3381 61.1779 28.4072Z" fill="url(#paint0_linear_5_25267)"/>
<path id="Vector_14" d="M55.2404 28.4072L46.1071 41.2418C46.1071 41.2418 45.8232 41.6319 46.354 41.7208H48.5367C48.5367 41.7208 50.1688 41.5825 51.196 39.6665L59.2083 28.3307C59.2083 28.3307 59.2948 28.2072 59.275 28.1035H55.4577C55.4577 28.1035 55.2898 28.3381 55.2404 28.4072Z" fill="url(#paint1_linear_5_25267)"/>
<path id="Vector_15" d="M61.1779 27.798L52.0446 14.9634C52.0446 14.9634 51.7607 14.5733 52.2915 14.4844H60.2273C60.2273 14.4844 61.8594 14.6226 62.8866 16.5387L70.8989 27.8745C70.8989 27.8745 70.9853 27.998 70.9656 28.1017H61.3952C61.3952 28.1017 61.2273 27.8671 61.1779 27.798Z" fill="url(#paint2_linear_5_25267)"/>
<path id="Vector_16" d="M50.0505 34.4464L52.0258 31.9205L50.6579 28.1032C50.6579 28.1032 50.5443 27.6662 50.2011 27.6094H48.0357C48.0357 27.6094 47.448 27.6464 47.5221 28.2736L50.048 34.4439L50.0505 34.4464Z" fill="white"/>
</g>
<g id="Group_3">
<g id="Group_4">
<g id="Group_5">
<path id="Vector_17" d="M57.8542 35.4219L57.8197 37.3083L56.0938 36.333L57.8542 35.4219Z" fill="white"/>
<path id="Vector_18" d="M57.2901 40.3435L55.7667 41.4571L55.5 39.4941L57.2901 40.3435Z" fill="white"/>
<path id="Vector_19" d="M55.0141 34.7366L54.8906 33.9316L55.1869 34.0008L55.0141 34.7366Z" fill="white"/>
<path id="Vector_20" d="M65.0744 31.5879L64.6299 33.1558L64.1484 32.783L65.0744 31.5879Z" fill="white"/>
<path id="Vector_21" d="M59.5781 29.8125L60.6127 30.0644L60.3831 30.3878L59.5781 29.8125Z" fill="white"/>
<path id="Vector_22" d="M46.8265 37.7246L46.7969 39.2308L48.0759 38.7987L48.0956 37.7468L46.8265 37.7246Z" fill="white"/>
<path id="Vector_23" d="M62.9416 30.4548L62.9218 31.5363L62.0156 31.1931L62.0304 30.4375L62.9416 30.4548Z" fill="white"/>
<path id="Vector_24" d="M66.2275 40.8281L66.9263 41.6528L66.0226 41.9936L65.5312 41.4183L66.2275 40.8281Z" fill="white"/>
<path id="Vector_25" d="M63.2709 34.4629L63.7055 34.974L63.145 35.1839L62.8438 34.8283L63.2709 34.4629Z" fill="white"/>
<path id="Vector_26" d="M52.1171 44.6973L52.5517 45.2084L51.9912 45.4183L51.6875 45.0627L52.1171 44.6973Z" fill="white"/>
</g>
<g id="Group_6">
<path id="Vector_27" d="M69.4792 27.3906L69.4422 29.277L67.7188 28.3017L69.4792 27.3906Z" fill="white"/>
<path id="Vector_28" d="M70.9127 32.3123L69.3892 33.4259L69.125 31.4629L70.9127 32.3123Z" fill="white"/>
<path id="Vector_29" d="M66.6391 26.7053L66.5156 25.9004L66.8119 25.9695L66.6391 26.7053Z" fill="white"/>
<path id="Vector_30" d="M76.6969 23.5566L76.2549 25.1245L75.7734 24.7517L76.6969 23.5566Z" fill="white"/>
<path id="Vector_31" d="M71.2031 21.7812L72.2377 22.0331L72.0081 22.3566L71.2031 21.7812Z" fill="white"/>
<path id="Vector_32" d="M58.4515 29.6934L58.4219 31.202L59.7009 30.7699L59.7206 29.718L58.4515 29.6934Z" fill="white"/>
<path id="Vector_33" d="M74.5641 22.4211L74.5443 23.505L73.6406 23.1618L73.6554 22.4062L74.5641 22.4211Z" fill="white"/>
<path id="Vector_34" d="M74.8959 26.4316L75.328 26.9428L74.77 27.1526L74.4688 26.7971L74.8959 26.4316Z" fill="white"/>
<path id="Vector_35" d="M63.7421 36.666L64.1742 37.1771L63.6162 37.387L63.3125 37.0314L63.7421 36.666Z" fill="white"/>
</g>
</g>
<g id="Group_7">
<g id="Group_8">
<path id="Vector_36" d="M49.7344 19.1265L50.6405 18.3438L50.9122 19.5709L49.7344 19.1265Z" fill="white"/>
<path id="Vector_37" d="M52.2969 17.2969L53.4673 17.5438L52.6549 18.5018L52.2969 17.2969Z" fill="white"/>
<path id="Vector_38" d="M50.622 20.7598L50.2968 21.1589L50.2031 20.9914L50.622 20.7598Z" fill="white"/>
<path id="Vector_39" d="M44.8594 17.3474L45.7878 16.8906L45.8174 17.2758L44.8594 17.3474Z" fill="white"/>
<path id="Vector_40" d="M46.3527 20.6954L46.0312 20.0995L46.2835 20.0723L46.3527 20.6954Z" fill="white"/>
<path id="Vector_41" d="M55.505 23.3536L56.2284 22.7264L55.4827 22.3066L54.9766 22.7437L55.505 23.3536Z" fill="white"/>
<path id="Vector_42" d="M45.2344 18.8366L45.7529 18.3848L45.9751 18.9601L45.6122 19.2737L45.2344 18.8366Z" fill="white"/>
<path id="Vector_43" d="M48.7266 12.8787L48.8179 12.1973L49.3661 12.4787L49.3019 12.9553L48.7266 12.8787Z" fill="white"/>
<path id="Vector_44" d="M46.9844 16.9755L47.041 16.5566L47.3761 16.7316L47.3367 17.0223L46.9844 16.9755Z" fill="white"/>
<path id="Vector_45" d="M56.5469 17.8915L56.6035 17.4727L56.9386 17.6476L56.8992 17.9384L56.5469 17.8915Z" fill="white"/>
</g>
<g id="Group_9">
<path id="Vector_46" d="M59.5189 12.0352L59.4844 13.9216L61.2424 13.0129L59.5189 12.0352Z" fill="white"/>
<path id="Vector_47" d="M59.8906 18.98L61.3721 20.1479L61.7104 18.1973L59.8906 18.98Z" fill="white"/>
<path id="Vector_48" d="M62.3801 13.4577L62.5331 12.6602L62.2344 12.7169L62.3801 13.4577Z" fill="white"/>
<path id="Vector_49" d="M52.4453 9.94141L52.8305 11.5217L53.3243 11.1686L52.4453 9.94141Z" fill="white"/>
<path id="Vector_50" d="M57.9951 8.36914L56.9531 8.58149L57.1729 8.91235L57.9951 8.36914Z" fill="white"/>
<path id="Vector_51" d="M70.4451 16.7532L70.4155 18.2594L69.1562 17.7804L69.176 16.7285L70.4451 16.7532Z" fill="white"/>
<path id="Vector_52" d="M54.6135 8.88477L54.5938 9.96625L55.5123 9.65513L55.5246 8.90205L54.6135 8.88477Z" fill="white"/>
<path id="Vector_53" d="M50.9496 19.1289L50.2188 19.9264L51.1101 20.3017L51.6212 19.7462L50.9496 19.1289Z" fill="white"/>
<path id="Vector_54" d="M54.1393 12.8789L53.6875 13.3727L54.2406 13.6048L54.5542 13.2592L54.1393 12.8789Z" fill="white"/>
<path id="Vector_55" d="M64.905 23.5195L64.4531 24.0109L65.0037 24.243L65.3198 23.8998L64.905 23.5195Z" fill="white"/>
</g>
<g id="Group_10">
<path id="Vector_56" d="M60.1641 10.2129L61.0702 9.42773L61.3418 10.6574L60.1641 10.2129Z" fill="white"/>
<path id="Vector_57" d="M62.7266 8.38086L63.8994 8.62777L63.0846 9.5858L62.7266 8.38086Z" fill="white"/>
<path id="Vector_58" d="M61.0439 11.8438L60.7186 12.2429L60.625 12.0754L61.0439 11.8438Z" fill="white"/>
<path id="Vector_59" d="M55.2891 8.4314L56.215 7.97461L56.2446 8.35979L55.2891 8.4314Z" fill="white"/>
<path id="Vector_60" d="M56.7824 11.7735L56.4609 11.1801L56.7107 11.1504L56.7824 11.7735Z" fill="white"/>
<path id="Vector_61" d="M65.9346 14.4341L66.6581 13.807L65.9124 13.3848L65.4062 13.8243L65.9346 14.4341Z" fill="white"/>
<path id="Vector_62" d="M55.6562 9.91813L56.1772 9.46875L56.397 10.0416L56.0365 10.3552L55.6562 9.91813Z" fill="white"/>
<path id="Vector_63" d="M59.1562 3.96026L59.2476 3.28125L59.7933 3.56273L59.7291 4.03927L59.1562 3.96026Z" fill="white"/>
<path id="Vector_64" d="M57.4062 8.05951L57.4629 7.64062L57.8005 7.81311L57.7611 8.10632L57.4062 8.05951Z" fill="white"/>
<path id="Vector_65" d="M66.9766 8.97552L67.0332 8.55664L67.3708 8.72912L67.3314 9.02233L66.9766 8.97552Z" fill="white"/>
</g>
<g id="Group_11">
<path id="Vector_66" d="M55.0451 6.95864L54.4253 6.38086L54.2031 7.24012L55.0451 6.95864Z" fill="white"/>
<path id="Vector_67" d="M53.2877 5.59961L52.4531 5.74282L53.0013 6.43912L53.2877 5.59961Z" fill="white"/>
<path id="Vector_68" d="M54.3906 8.08398L54.6099 8.37227L54.6789 8.25646L54.3906 8.08398Z" fill="white"/>
<path id="Vector_69" d="M58.5319 5.83054L57.889 5.48438L57.8594 5.75388L58.5319 5.83054Z" fill="white"/>
<path id="Vector_70" d="M57.3906 8.15148L57.6321 7.73999L57.4572 7.71289L57.3906 8.15148Z" fill="white"/>
<path id="Vector_71" d="M50.8688 9.78268L50.375 9.32342L50.9133 9.04688L51.2565 9.36786L50.8688 9.78268Z" fill="white"/>
<path id="Vector_72" d="M58.2323 6.86843L57.8762 6.53711L57.7031 6.93519L57.9528 7.16762L58.2323 6.86843Z" fill="white"/>
<path id="Vector_73" d="M55.9245 2.57837L55.8775 2.09375L55.4844 2.27919L55.5165 2.61793L55.9245 2.57837Z" fill="white"/>
<path id="Vector_74" d="M57.0523 5.50857L57.0252 5.21289L56.7812 5.32624L56.8034 5.53321L57.0523 5.50857Z" fill="white"/>
<path id="Vector_75" d="M50.2789 5.90752L50.2493 5.60938L50.0078 5.72272L50.0275 5.93216L50.2789 5.90752Z" fill="white"/>
</g>
</g>
</g>
</g>
<defs>
<linearGradient id="paint0_linear_5_25267" x1="52.6421" y1="42.2689" x2="67.852" y2="29.1677" gradientUnits="userSpaceOnUse">
<stop offset="0.22" stop-color="white"/>
<stop offset="0.58" stop-color="white"/>
<stop offset="0.99" stop-color="white"/>
</linearGradient>
<linearGradient id="paint1_linear_5_25267" x1="45.475" y1="40.8517" x2="57.8232" y2="30.2146" gradientUnits="userSpaceOnUse">
<stop offset="0.22" stop-color="white"/>
<stop offset="0.58" stop-color="white"/>
<stop offset="0.99" stop-color="white"/>
</linearGradient>
<linearGradient id="paint2_linear_5_25267" x1="71.2199" y1="28.5288" x2="52.4224" y2="15.0844" gradientUnits="userSpaceOnUse">
<stop offset="0.22" stop-color="white"/>
<stop offset="0.58" stop-color="white"/>
<stop offset="0.99" stop-color="white"/>
</linearGradient>
</defs>
</svg>
