<svg width="133" height="30" viewBox="0 0 133 30" fill="none" xmlns="http://www.w3.org/2000/svg">
<g id="Group">
<g id="Group 1171276423">
<path id="Vector" d="M11.7273 5.42113H7.07328V4.25762C7.07328 3.74051 7.00864 3.35268 6.87936 3.2234C6.75009 3.09412 6.55617 3.02948 6.29762 3.02948C5.97442 3.02948 5.7805 3.15876 5.58658 3.35268C5.4573 3.54659 5.32803 3.86979 5.32803 4.25762C5.32803 4.77474 5.39267 5.16257 5.58658 5.42113C5.7805 5.67968 6.23298 6.00288 7.00865 6.39071C9.20638 7.48958 10.6284 8.39453 11.2102 9.10556C11.7919 9.81659 12.0505 10.9155 12.0505 12.4668C12.0505 13.6303 11.8566 14.406 11.598 14.9877C11.2748 15.5048 10.6284 15.9573 9.72349 16.3451C8.81854 16.733 7.71968 16.8622 6.49154 16.8622C5.13412 16.8622 4.03525 16.6683 3.06566 16.2159C2.09608 15.828 1.51433 15.2463 1.19113 14.5999C0.867937 13.9535 0.738651 13.0485 0.738651 11.8204V10.7862H5.39267V12.7253C5.39267 13.3071 5.4573 13.6949 5.58658 13.8889C5.71586 14.0828 5.97442 14.1474 6.29762 14.1474C6.62081 14.1474 6.87937 14.0181 7.00865 13.8242C7.20257 13.6303 7.2672 13.3071 7.2672 12.8546C7.2672 11.9497 7.13793 11.3033 6.81473 11.0447C6.49154 10.7862 5.71586 10.2691 4.48772 9.62267C3.25958 8.91164 2.41927 8.45917 2.03143 8.13597C1.6436 7.81277 1.32041 7.42494 0.997213 6.84319C0.738657 6.32608 0.609375 5.61504 0.609375 4.77474C0.609375 3.54659 0.803298 2.64165 1.19113 2.12453C1.57897 1.54278 2.16071 1.15495 3.00102 0.831753C3.84133 0.508557 4.87556 0.379279 6.03906 0.379279C7.33185 0.379279 8.43071 0.573195 9.33565 0.896391C10.2406 1.21959 10.8224 1.67206 11.1455 2.18917C11.4687 2.70629 11.598 3.61123 11.598 4.83938V5.42113H11.7273ZM18.3205 3.48195L18.1266 5.22721C18.8376 3.99907 19.8718 3.35268 21.1646 3.28804V7.87741C20.2597 7.87741 19.6133 8.00669 19.2254 8.20061C18.8376 8.39452 18.579 8.65308 18.4498 9.04092C18.3851 9.36411 18.3205 10.2044 18.3205 11.4326V16.6037H13.5372V3.48195H18.3205ZM27.2407 0.573195V2.64165H22.3281V0.573195H27.2407ZM27.2407 3.48195V16.4744H22.3281V3.48195H27.2407ZM45.0811 7.55422H40.0392V4.77474C40.0392 3.99907 39.9746 3.48196 39.9099 3.28804C39.7807 3.09412 39.5867 2.96484 39.1989 2.96484C38.8111 2.96484 38.5525 3.09412 38.4232 3.35268C38.294 3.61123 38.2293 4.12835 38.2293 4.90402V12.2729C38.2293 13.0485 38.294 13.5657 38.4232 13.7596C38.5525 14.0181 38.8111 14.0828 39.1343 14.0828C39.5221 14.0828 39.716 13.9535 39.8453 13.7596C39.9746 13.501 40.0392 12.9839 40.0392 12.079V10.0751H45.0811V10.7215C45.0811 12.3375 44.9518 13.5657 44.6286 14.212C44.37 14.9231 43.7236 15.5048 42.7541 16.0219C41.7845 16.539 40.621 16.7976 39.1989 16.7976C37.7122 16.7976 36.5487 16.6037 35.5791 16.1512C34.6095 15.6987 34.0278 15.117 33.7046 14.3413C33.3814 13.5657 33.2521 12.4022 33.2521 10.8508V6.1968C33.2521 5.03329 33.3168 4.19299 33.3814 3.61123C33.5107 3.02948 33.7692 2.51237 34.2217 1.93062C34.6742 1.41351 35.3206 0.96103 36.1609 0.702474C37.0012 0.379279 37.9708 0.25 39.0696 0.25C40.5563 0.25 41.7845 0.508558 42.7541 0.961031C43.7236 1.41351 44.37 1.99525 44.6286 2.70628C44.9518 3.41732 45.0811 4.51618 45.0811 6.00288V7.55422ZM51.545 0.573195V4.12835C51.9328 3.80515 52.3853 3.54659 52.9024 3.41732C53.3549 3.28804 53.872 3.15876 54.4537 3.15876C55.294 3.15876 56.0051 3.35268 56.5868 3.67587C57.1686 3.99907 57.5564 4.45154 57.6857 4.90402C57.815 5.35649 57.8796 6.1968 57.8796 7.42494V16.4098H53.0963V7.3603C53.0963 6.58463 53.0317 6.13216 52.967 5.8736C52.9024 5.67968 52.6439 5.55041 52.3207 5.55041C51.9975 5.55041 51.8035 5.67968 51.7389 5.8736C51.6096 6.06752 51.6096 6.51999 51.6096 7.16638V16.4744H46.8263V0.573195H51.545ZM63.7618 8.5238H59.237V7.61886C59.237 6.58463 59.3663 5.80896 59.6895 5.29185C59.9481 4.77474 60.5298 4.25763 61.3701 3.86979C62.2104 3.48196 63.3093 3.2234 64.6667 3.2234C66.2827 3.2234 67.5108 3.48196 68.3511 3.93443C69.1915 4.3869 69.6439 4.96865 69.8378 5.67968C70.0318 6.39071 70.0964 7.81277 70.0964 9.94586V16.4744H65.4424V15.3109C65.1192 15.7634 64.796 16.1512 64.2789 16.3451C63.8264 16.6037 63.2447 16.6683 62.5983 16.6683C61.758 16.6683 60.9823 16.4744 60.2713 16.0866C59.5602 15.6987 59.237 14.8584 59.237 13.501V12.4021C59.237 11.4326 59.4309 10.7862 59.8188 10.3983C60.2066 10.0751 61.1116 9.62267 62.5983 9.17019C64.1496 8.65308 64.9899 8.32989 65.1192 8.13597C65.2485 7.94205 65.3131 7.61886 65.3131 7.0371C65.3131 6.32607 65.2485 5.93824 65.1192 5.67968C64.9899 5.48577 64.796 5.35649 64.4728 5.35649C64.1496 5.35649 63.9557 5.42113 63.8911 5.61504C63.8264 5.80896 63.7618 6.26144 63.7618 6.97247V8.5238ZM65.3131 10.3337C64.5374 10.7862 64.085 11.174 63.9557 11.4972C63.8264 11.8204 63.7618 12.2729 63.7618 12.8546C63.7618 13.501 63.8264 13.9535 63.9557 14.1474C64.085 14.3413 64.2789 14.4706 64.6021 14.4706C64.9253 14.4706 65.1192 14.406 65.1838 14.212C65.2485 14.0828 65.3131 13.6303 65.3131 12.9839V10.3337ZM76.6896 0.573195V2.64165H71.777V0.573195H76.6896ZM76.6896 3.48195V16.4744H71.777V3.48195H76.6896ZM83.4767 1.7367V3.80515H84.8341V5.8736H83.4767V12.8546C83.4767 13.6949 83.5413 14.212 83.6706 14.2767C83.7999 14.406 84.2523 14.406 85.028 14.406V16.4744H83.0889C81.99 16.4744 81.2143 16.4098 80.7619 16.3451C80.3094 16.2805 79.8569 16.0866 79.5337 15.828C79.1459 15.5695 78.952 15.2463 78.8873 14.9231C78.8227 14.5999 78.758 13.7596 78.758 12.4668V5.8736H77.7238V3.80515H78.758V1.7367H83.4767ZM90.1345 8.5238H85.6098V7.61886C85.6098 6.58463 85.7391 5.80896 86.0622 5.29185C86.3208 4.77474 86.9026 4.25763 87.7429 3.86979C88.5832 3.48196 89.6821 3.2234 91.0395 3.2234C92.6554 3.2234 93.8836 3.48196 94.7239 3.93443C95.5642 4.3869 96.0167 4.96865 96.2106 5.67968C96.4045 6.39071 96.4691 7.81277 96.4691 9.94586V16.4744H91.8151V15.3109C91.4919 15.7634 91.1687 16.1512 90.6516 16.3451C90.1992 16.6037 89.6174 16.6683 88.971 16.6683C88.1307 16.6683 87.355 16.4744 86.644 16.0866C85.933 15.6987 85.6098 14.8584 85.6098 13.501V12.4021C85.6098 11.4326 85.8037 10.7862 86.1915 10.3983C86.5794 10.0751 87.4843 9.62267 88.971 9.17019C90.5223 8.65308 91.3627 8.32989 91.4919 8.13597C91.6212 7.94205 91.6859 7.61886 91.6859 7.0371C91.6859 6.32607 91.6212 5.93824 91.4919 5.67968C91.3627 5.48577 91.1687 5.35649 90.8455 5.35649C90.5223 5.35649 90.3284 5.42113 90.2638 5.61504C90.1992 5.80896 90.1345 6.26144 90.1345 6.97247V8.5238ZM91.6859 10.3337C90.9102 10.7862 90.4577 11.174 90.3284 11.4972C90.1992 11.8204 90.1345 12.2729 90.1345 12.8546C90.1345 13.501 90.1992 13.9535 90.3284 14.1474C90.4577 14.3413 90.6516 14.4706 90.9748 14.4706C91.298 14.4706 91.4919 14.406 91.5566 14.212C91.6212 14.0828 91.6859 13.6303 91.6859 12.9839V10.3337ZM102.998 3.48195L102.933 4.7101C103.256 4.25762 103.709 3.86979 104.226 3.61123C104.743 3.35268 105.325 3.2234 105.971 3.2234C106.811 3.2234 107.458 3.35268 107.975 3.67587C108.492 3.99907 108.815 4.3869 109.009 4.90402C109.138 5.42113 109.268 6.1968 109.268 7.3603V16.4744H104.484V7.48958C104.484 6.58463 104.42 6.06752 104.355 5.8736C104.29 5.67968 104.097 5.55041 103.773 5.55041C103.45 5.55041 103.192 5.67968 103.127 5.8736C103.062 6.13216 102.998 6.71391 102.998 7.6835V16.4744H98.0851V3.48195H102.998ZM120.903 3.48195L119.545 12.9193C119.351 14.406 119.157 15.4402 119.028 15.9573C118.899 16.4744 118.64 16.9269 118.317 17.3147C117.994 17.6379 117.477 17.8965 116.895 18.0904C116.313 18.2843 115.344 18.3489 113.986 18.3489H111.013V16.2805C111.789 16.2805 112.241 16.2805 112.435 16.2159C112.629 16.1512 112.758 16.0219 112.758 15.828C112.758 15.6987 112.629 15.2463 112.435 14.4706L109.785 3.61123H114.116L115.667 12.4021L116.443 3.61123H120.903V3.48195ZM126.074 8.5238H121.549V7.61886C121.549 6.58463 121.678 5.80896 122.002 5.29185C122.26 4.77474 122.842 4.25763 123.682 3.86979C124.523 3.48196 125.621 3.2234 126.979 3.2234C128.595 3.2234 129.823 3.48196 130.663 3.93443C131.504 4.3869 131.956 4.96865 132.15 5.67968C132.344 6.39071 132.408 7.81277 132.408 9.94586V16.4744H127.754V15.3109C127.431 15.7634 127.108 16.1512 126.591 16.3451C126.138 16.6037 125.557 16.6683 124.91 16.6683C124.07 16.6683 123.294 16.4744 122.583 16.0866C121.872 15.6987 121.549 14.8584 121.549 13.501V12.4021C121.549 11.4326 121.743 10.7862 122.131 10.3983C122.519 10.0751 123.424 9.62267 124.91 9.17019C126.462 8.65308 127.302 8.32989 127.431 8.13597C127.561 7.94205 127.625 7.61886 127.625 7.0371C127.625 6.32607 127.561 5.93824 127.431 5.67968C127.302 5.48577 127.108 5.35649 126.785 5.35649C126.462 5.35649 126.268 5.42113 126.203 5.61504C126.138 5.80896 126.074 6.26144 126.074 6.97247V8.5238ZM127.561 10.3337C126.785 10.7862 126.332 11.174 126.203 11.4972C126.074 11.8204 126.009 12.2729 126.009 12.8546C126.009 13.501 126.074 13.9535 126.203 14.1474C126.332 14.3413 126.526 14.4706 126.85 14.4706C127.173 14.4706 127.367 14.406 127.431 14.212C127.496 14.0828 127.561 13.6303 127.561 12.9839V10.3337Z" fill="white"/>
<path id="Vector_2" d="M0.09375 29.4022V20.0295H6.88085V21.1283H1.38653V24.0371H6.55766V25.136H1.38653V28.3679H7.13942V29.4668H0.09375V29.4022ZM13.0216 29.4022V28.5618C12.8277 28.885 12.5691 29.1436 12.2459 29.3375C11.9227 29.5314 11.5349 29.5961 11.2117 29.5961C10.436 29.5961 9.72497 29.2729 9.14322 28.6911C8.56147 28.0447 8.23828 27.2044 8.23828 26.0409C8.23828 25.2652 8.36756 24.6189 8.62612 24.1017C8.88467 23.5846 9.20786 23.1322 9.66034 22.8736C10.1128 22.615 10.5653 22.4858 11.0824 22.4858C11.4702 22.4858 11.7934 22.5504 12.1166 22.7443C12.4398 22.9382 12.6984 23.1322 12.8923 23.4554V20.0941H14.0558V29.5314H13.0216V29.4022ZM9.40178 26.0409C9.40178 26.9459 9.5957 27.5923 9.98353 27.9801C10.3714 28.4326 10.7592 28.6265 11.2763 28.6265C11.7934 28.6265 12.1813 28.4326 12.5691 27.9801C12.9569 27.5923 13.0862 26.9459 13.0862 26.1056C13.0862 25.136 12.8923 24.4249 12.5691 24.0371C12.1813 23.5846 11.7288 23.3907 11.2117 23.3907C10.7592 23.3907 10.3067 23.5846 9.98353 24.0371C9.53106 24.4249 9.40178 25.136 9.40178 26.0409ZM20.3258 29.4022V28.4326C20.0672 28.8204 19.744 29.079 19.4208 29.2729C19.033 29.4668 18.6452 29.5314 18.1927 29.5314C17.6756 29.5314 17.2231 29.4021 16.8353 29.1436C16.4474 28.885 16.1889 28.6265 16.0596 28.2386C15.9303 27.8508 15.8657 27.3983 15.8657 26.7519V22.5504H17.0292V26.3641C17.0292 27.0751 17.0938 27.5276 17.1585 27.7862C17.2231 28.0447 17.417 28.2386 17.6109 28.3679C17.8695 28.4972 18.1281 28.5618 18.3866 28.5618C18.9037 28.5618 19.3562 28.3679 19.744 27.9801C20.0672 27.6569 20.1965 27.0751 20.1965 26.2348V22.5504H21.36V29.4022H20.3258ZM27.5654 26.9459L28.7289 27.0751C28.5996 27.9155 28.2764 28.4972 27.7593 28.9497C27.2422 29.4021 26.5958 29.5961 25.8848 29.5961C24.9798 29.5961 24.2688 29.2729 23.687 28.6911C23.1053 28.1094 22.8467 27.2044 22.8467 26.0409C22.8467 24.8774 23.1053 23.9725 23.687 23.3907C24.2688 22.809 25.0444 22.4858 25.9494 22.4858C26.6604 22.4858 27.2422 22.6797 27.6946 23.0029C28.1471 23.3907 28.4703 23.9078 28.5996 24.6189L27.5007 24.8128C27.3715 24.3603 27.1775 23.9725 26.919 23.7785C26.6604 23.52 26.3372 23.4554 25.9494 23.4554C25.3676 23.4554 24.9152 23.6493 24.5273 24.1017C24.1395 24.4896 23.9456 25.2006 23.9456 26.0409C23.9456 26.9459 24.1395 27.6569 24.4627 28.0447C24.7859 28.4326 25.2384 28.6911 25.8201 28.6911C26.2726 28.6911 26.5958 28.5618 26.919 28.3033C27.3068 27.9154 27.5007 27.5276 27.5654 26.9459ZM34.0939 28.5618C33.7061 28.885 33.3182 29.1436 32.8658 29.3375C32.4779 29.5314 32.0255 29.5961 31.573 29.5961C30.862 29.5961 30.2802 29.4022 29.8924 29.079C29.4399 28.7558 29.246 28.2386 29.246 27.6569C29.246 27.2691 29.3753 26.9459 29.5692 26.6227C29.7631 26.2995 30.0217 26.1056 30.4095 25.9116C30.7327 25.7177 31.2498 25.5884 31.9608 25.5238C32.8658 25.3945 33.5768 25.2652 34.0293 25.136V24.8128C34.0293 24.3603 33.9 24.0371 33.7061 23.8432C33.4475 23.5846 32.995 23.4554 32.4133 23.4554C31.8962 23.4554 31.5084 23.52 31.1852 23.7139C30.9266 23.9078 30.7327 24.231 30.6034 24.7481L29.4399 24.5542C29.6338 23.8432 29.957 23.3261 30.4095 23.0029C30.9266 22.6797 31.6376 22.4858 32.5426 22.4858C33.2536 22.4858 33.8354 22.615 34.2232 22.809C34.611 23.0029 34.8696 23.3261 34.9989 23.6493C35.1281 23.9725 35.1281 24.4249 35.1281 25.0713V26.6227C35.1281 27.7215 35.1281 28.3679 35.1928 28.6911C35.2574 28.9497 35.3221 29.2729 35.516 29.5314H34.3525C34.2232 29.2082 34.1586 28.885 34.0939 28.5618ZM34.0293 25.9763C33.6414 26.1702 32.995 26.2995 32.1547 26.4288C31.7023 26.4934 31.3144 26.558 31.1205 26.6873C30.9266 26.7519 30.7973 26.8812 30.668 27.0751C30.5388 27.2044 30.5388 27.3983 30.5388 27.6569C30.5388 27.9801 30.668 28.2386 30.9266 28.4326C31.1852 28.6265 31.5083 28.7558 31.9608 28.7558C32.3487 28.7558 32.7365 28.6911 33.0597 28.4972C33.3829 28.3033 33.6414 28.1094 33.8354 27.7862C34.0293 27.463 34.0939 27.0751 34.0939 26.4934V25.9763H34.0293ZM39.5236 28.3679L39.6529 29.4022C39.3297 29.4668 39.0711 29.5314 38.8126 29.5314C38.4247 29.5314 38.1015 29.4668 37.843 29.3375C37.5844 29.2082 37.4551 29.0143 37.3259 28.8204C37.2612 28.6265 37.1966 28.1094 37.1966 27.463V23.52H36.3563V22.615H37.1966V20.9344L38.3601 20.2234V22.615H39.5236V23.52H38.3601V27.5276C38.3601 27.9155 38.4247 28.1094 38.4894 28.2386C38.6187 28.3679 38.7479 28.4972 39.0711 28.4972C39.1358 28.4326 39.3297 28.4326 39.5236 28.3679ZM40.6225 21.3223V19.9648H41.786V21.3223H40.6225ZM40.6225 29.4022V22.615H41.786V29.4668H40.6225V29.4022ZM43.0787 26.0409C43.0787 24.8774 43.4019 23.9725 43.9837 23.3907C44.5654 22.809 45.3411 22.4858 46.2461 22.4858C47.151 22.4858 47.9267 22.809 48.5084 23.3907C49.0902 23.9725 49.4134 24.8774 49.4134 25.9763C49.4134 27.2044 49.0902 28.1094 48.5084 28.6911C47.9267 29.2729 47.151 29.5961 46.2461 29.5961C45.3411 29.5961 44.5654 29.2729 43.9837 28.6911C43.3373 28.0447 43.0787 27.2044 43.0787 26.0409ZM44.2422 26.0409C44.2422 26.9459 44.4362 27.5923 44.824 28.0447C45.2118 28.4972 45.6643 28.6911 46.2461 28.6911C46.7632 28.6911 47.2156 28.4972 47.6035 28.0447C47.9913 27.5923 48.1852 26.9459 48.1852 26.1056C48.1852 25.2006 47.9913 24.5542 47.6035 24.1664C47.2156 23.7139 46.7632 23.52 46.1814 23.52C45.6643 23.52 45.1472 23.7139 44.824 24.1664C44.4362 24.4896 44.2422 25.136 44.2422 26.0409ZM50.7708 29.4022V22.615H51.805V23.5846C52.0636 23.1968 52.3868 22.9382 52.71 22.7443C53.0978 22.5504 53.4856 22.4858 53.9381 22.4858C54.326 22.4858 54.6491 22.5504 54.9723 22.6797C55.2955 22.809 55.5541 22.9382 55.748 23.1322C55.9419 23.3261 56.0712 23.5846 56.2005 23.8432C56.2651 24.1664 56.3298 24.6189 56.3298 25.2652V29.4668H55.1663V25.3299C55.1663 24.8128 55.1016 24.4896 55.037 24.231C54.9077 23.9725 54.7784 23.8432 54.5199 23.7139C54.326 23.5846 54.0674 23.52 53.7442 23.52C53.2271 23.52 52.7746 23.7139 52.4514 24.0371C52.1282 24.3603 51.9343 24.9421 51.9343 25.7824V29.5314H50.7708V29.4022ZM62.4705 28.5618C62.0826 28.885 61.6948 29.1436 61.2423 29.3375C60.8545 29.5314 60.402 29.5961 59.9495 29.5961C59.2385 29.5961 58.6568 29.4022 58.2689 29.079C57.8165 28.7558 57.6225 28.2386 57.6225 27.6569C57.6225 27.2691 57.7518 26.9459 57.9457 26.6227C58.1396 26.2995 58.3982 26.1056 58.7861 25.9116C59.1092 25.7177 59.6264 25.5884 60.3374 25.5238C61.2423 25.3945 61.9534 25.2652 62.4058 25.136V24.8128C62.4058 24.3603 62.2765 24.0371 62.0826 23.8432C61.8241 23.5846 61.3716 23.4554 60.7898 23.4554C60.2727 23.4554 59.8849 23.52 59.5617 23.7139C59.3032 23.9078 59.1092 24.231 58.98 24.7481L57.8165 24.5542C58.0104 23.8432 58.3336 23.3261 58.7861 23.0029C59.3032 22.6797 59.9495 22.4858 60.9191 22.4858C61.6302 22.4858 62.2119 22.615 62.5998 22.809C62.9876 23.0029 63.2461 23.3261 63.3754 23.6493C63.5047 23.9725 63.5047 24.4249 63.5047 25.0713V26.6227C63.5047 27.7215 63.5047 28.3679 63.5693 28.6911C63.634 28.9497 63.6986 29.2729 63.8925 29.5314H62.729C62.5997 29.2082 62.4705 28.885 62.4705 28.5618ZM62.3412 25.9763C61.9534 26.1702 61.307 26.2995 60.4667 26.4288C60.0142 26.4934 59.6264 26.558 59.4324 26.6873C59.2385 26.7519 59.1092 26.8812 58.98 27.0751C58.8507 27.2044 58.8507 27.3983 58.8507 27.6569C58.8507 27.9801 58.98 28.2386 59.2385 28.4326C59.4971 28.6265 59.8203 28.7558 60.2727 28.7558C60.6606 28.7558 61.0484 28.6911 61.3716 28.4972C61.6948 28.3033 61.9534 28.1094 62.1473 27.7862C62.3412 27.463 62.4058 27.0751 62.4058 26.4934V25.9763H62.3412ZM65.25 29.4022V20.0295H66.4135V29.4668H65.25V29.4022ZM72.231 29.4022V20.0295H73.4591V29.4668H72.231V29.4022ZM75.4629 29.4022V22.615H76.4972V23.5846C76.7557 23.1968 77.0789 22.9382 77.4021 22.7443C77.7899 22.5504 78.1778 22.4858 78.6302 22.4858C79.0181 22.4858 79.3413 22.5504 79.6645 22.6797C79.9877 22.809 80.2462 22.9382 80.4401 23.1322C80.6341 23.3261 80.7633 23.5846 80.8926 23.8432C80.9572 24.1664 81.0219 24.6189 81.0219 25.2652V29.4668H79.8584V25.3299C79.8584 24.8128 79.7937 24.4896 79.7291 24.231C79.5998 23.9725 79.4705 23.8432 79.212 23.7139C79.0181 23.5846 78.7595 23.52 78.4363 23.52C77.9192 23.52 77.4667 23.7139 77.1435 24.0371C76.8204 24.3603 76.6264 24.9421 76.6264 25.7824V29.5314H75.4629V29.4022ZM82.3147 27.3983L83.4782 27.2044C83.5428 27.6569 83.7367 28.0447 84.0599 28.3033C84.3831 28.5618 84.771 28.6265 85.2234 28.6265C85.7405 28.6265 86.1284 28.4972 86.3869 28.3033C86.6455 28.1094 86.7748 27.8508 86.7748 27.5276C86.7748 27.2691 86.6455 27.0751 86.4516 26.8812C86.3223 26.7519 85.9345 26.6227 85.2881 26.4934C84.3831 26.2995 83.8014 26.1056 83.4782 25.9116C83.155 25.7824 82.9611 25.5238 82.7671 25.2652C82.5732 25.0067 82.5086 24.6835 82.5086 24.3603C82.5086 23.7785 82.7025 23.3261 83.155 22.9382C83.6074 22.5504 84.2538 22.4211 85.0295 22.4211C85.5466 22.4211 85.9991 22.4858 86.3869 22.615C86.7748 22.7443 87.0333 22.9382 87.2919 23.1968C87.4858 23.4554 87.6151 23.8432 87.6797 24.2957L86.5809 24.4896C86.4516 23.7139 85.9991 23.3261 85.0941 23.3261C84.577 23.3261 84.1892 23.3907 83.9953 23.5846C83.7367 23.7785 83.6075 23.9725 83.6075 24.231C83.6075 24.4896 83.7367 24.6835 83.9306 24.8128C84.0599 24.8774 84.5124 25.0067 85.1588 25.2006C86.1284 25.4592 86.7101 25.6531 87.0333 25.7824C87.2919 25.9116 87.5504 26.1056 87.6797 26.3641C87.809 26.6227 87.9383 26.9459 87.9383 27.2691C87.9383 27.9154 87.6797 28.4326 87.1626 28.885C86.6455 29.2729 85.9991 29.4668 85.0941 29.4668C83.4782 29.5961 82.5732 28.8204 82.3147 27.3983ZM91.8812 28.3679L92.0105 29.4022C91.6873 29.4668 91.4288 29.5314 91.1702 29.5314C90.7824 29.5314 90.4592 29.4668 90.2006 29.3375C89.9421 29.2082 89.8128 29.0143 89.6835 28.8204C89.6189 28.6265 89.5542 28.1094 89.5542 27.463V23.52H88.7139V22.615H89.5542V20.9344L90.7178 20.2234V22.615H91.8812V23.52H90.7178V27.5276C90.7178 27.9155 90.7824 28.1094 90.847 28.2386C90.9763 28.3679 91.1056 28.4972 91.4288 28.4972C91.4934 28.4326 91.6227 28.4326 91.8812 28.3679ZM92.9155 21.3223V19.9648H94.079V21.3223H92.9155ZM92.9155 29.4022V22.615H94.079V29.4668H92.9155V29.4022ZM98.4098 28.3679L98.5391 29.4022C98.2159 29.4668 97.9573 29.5314 97.6988 29.5314C97.3109 29.5314 96.9877 29.4668 96.7292 29.3375C96.4706 29.2082 96.3414 29.0143 96.2121 28.8204C96.1474 28.6265 96.0828 28.1094 96.0828 27.463V23.52H95.2425V22.615H96.0828V20.9344L97.2463 20.2234V22.615H98.4098V23.52H97.2463V27.5276C97.2463 27.9155 97.3109 28.1094 97.3756 28.2386C97.5049 28.3679 97.6341 28.4972 97.9573 28.4972C98.022 28.4326 98.2159 28.4326 98.4098 28.3679ZM103.904 29.4022V28.4326C103.646 28.8204 103.322 29.079 102.999 29.2729C102.611 29.4668 102.224 29.5314 101.771 29.5314C101.254 29.5314 100.801 29.4021 100.414 29.1436C100.026 28.885 99.7672 28.6265 99.6379 28.2386C99.5087 27.8508 99.444 27.3983 99.444 26.7519V22.5504H100.608V26.3641C100.608 27.0751 100.672 27.5276 100.737 27.7862C100.801 28.0447 100.995 28.2386 101.189 28.3679C101.448 28.4972 101.706 28.5618 101.965 28.5618C102.482 28.5618 102.935 28.3679 103.322 27.9801C103.646 27.6569 103.775 27.0751 103.775 26.2348V22.5504H104.938V29.4022H103.904ZM109.269 28.3679L109.398 29.4022C109.075 29.4668 108.817 29.5314 108.558 29.5314C108.17 29.5314 107.847 29.4668 107.589 29.3375C107.33 29.2082 107.201 29.0143 107.071 28.8204C107.007 28.6265 106.942 28.1094 106.942 27.463V23.52H106.102V22.615H106.942V20.9344L108.106 20.2234V22.615H109.269V23.52H108.106V27.5276C108.106 27.9155 108.17 28.1094 108.235 28.2386C108.364 28.3679 108.494 28.4972 108.817 28.4972C108.946 28.4326 109.075 28.4326 109.269 28.3679ZM110.368 21.3223V19.9648H111.532V21.3223H110.368ZM110.368 29.4022V22.615H111.532V29.4668H110.368V29.4022ZM112.824 26.0409C112.824 24.8774 113.148 23.9725 113.729 23.3907C114.311 22.809 115.087 22.4858 115.992 22.4858C116.897 22.4858 117.672 22.809 118.254 23.3907C118.836 23.9725 119.159 24.8774 119.159 25.9763C119.159 27.2044 118.836 28.1094 118.254 28.6911C117.672 29.2729 116.897 29.5961 115.992 29.5961C115.087 29.5961 114.311 29.2729 113.729 28.6911C113.148 28.0447 112.824 27.2044 112.824 26.0409ZM114.052 26.0409C114.052 26.9459 114.246 27.5923 114.634 28.0447C115.022 28.4972 115.475 28.6911 116.056 28.6911C116.573 28.6911 117.026 28.4972 117.414 28.0447C117.802 27.5923 117.995 26.9459 117.995 26.1056C117.995 25.2006 117.802 24.5542 117.414 24.1664C117.026 23.7139 116.573 23.52 115.992 23.52C115.475 23.52 114.957 23.7139 114.634 24.1664C114.246 24.4896 114.052 25.136 114.052 26.0409ZM120.516 29.4022V22.615H121.551V23.5846C121.809 23.1968 122.132 22.9382 122.456 22.7443C122.843 22.5504 123.231 22.4858 123.684 22.4858C124.072 22.4858 124.395 22.5504 124.718 22.6797C125.041 22.809 125.3 22.9382 125.494 23.1322C125.687 23.3261 125.817 23.5846 125.946 23.8432C126.011 24.1664 126.075 24.6189 126.075 25.2652V29.4668H124.912V25.3299C124.912 24.8128 124.847 24.4896 124.783 24.231C124.653 23.9725 124.524 23.8432 124.265 23.7139C124.072 23.5846 123.813 23.52 123.49 23.52C122.973 23.52 122.52 23.7139 122.197 24.0371C121.874 24.3603 121.68 24.9421 121.68 25.7824V29.5314H120.516V29.4022ZM127.368 27.3983L128.532 27.2044C128.596 27.6569 128.79 28.0447 129.113 28.3033C129.437 28.5618 129.824 28.6265 130.277 28.6265C130.729 28.6265 131.182 28.4972 131.44 28.3033C131.699 28.1094 131.828 27.8508 131.828 27.5276C131.828 27.2691 131.699 27.0751 131.505 26.8812C131.376 26.7519 130.988 26.6227 130.342 26.4934C129.437 26.2995 128.855 26.1056 128.532 25.9116C128.208 25.7824 128.015 25.5238 127.821 25.2652C127.627 25.0067 127.562 24.6835 127.562 24.3603C127.562 23.7785 127.756 23.3261 128.208 22.9382C128.661 22.5504 129.307 22.4211 130.083 22.4211C130.6 22.4211 131.053 22.4858 131.44 22.615C131.828 22.7443 132.087 22.9382 132.345 23.1968C132.539 23.4554 132.669 23.8432 132.733 24.2957L131.634 24.4896C131.505 23.7139 131.053 23.3261 130.148 23.3261C129.63 23.3261 129.243 23.3907 129.049 23.5846C128.79 23.7785 128.661 23.9725 128.661 24.231C128.661 24.4896 128.79 24.6835 128.984 24.8128C129.113 24.8774 129.566 25.0067 130.212 25.2006C131.182 25.4592 131.764 25.6531 132.087 25.7824C132.345 25.9116 132.604 26.1056 132.733 26.3641C132.862 26.6227 132.992 26.9459 132.992 27.2691C132.992 27.9154 132.733 28.4326 132.216 28.885C131.699 29.2729 131.053 29.4668 130.148 29.4668C128.596 29.5961 127.627 28.8204 127.368 27.3983Z" fill="#D8EBFF"/>
</g>
</g>
</svg>
