<svg width="54" height="54" viewBox="0 0 54 54" fill="none" xmlns="http://www.w3.org/2000/svg">
<g id="Group 1000005614">
<g id="Ellipse 1148" filter="url(#filter0_d_5_25443)">
<circle cx="27" cy="23" r="20" fill="#FCDE5A"/>
</g>
<g id="call">
<mask id="mask0_5_25443" style="mask-type:alpha" maskUnits="userSpaceOnUse" x="18" y="14" width="18" height="18">
<rect id="Bounding box" x="18.5547" y="14.5547" width="17.1429" height="17.1429" fill="#D9D9D9"/>
</mask>
<g mask="url(#mask0_5_25443)">
<path id="call-[#192]" fill-rule="evenodd" clip-rule="evenodd" d="M34.3026 28.652C33.8636 29.986 32.1436 30.6513 30.9148 30.5404C29.2366 30.3887 27.4104 29.4986 26.0242 28.5182C23.9866 27.0771 22.078 24.8478 20.9658 22.4823C20.1798 20.8107 20.0034 18.7556 21.1725 17.2319C21.6049 16.6687 22.0723 16.368 22.7749 16.3329C23.7496 16.2855 23.8861 16.8431 24.2208 17.7115C24.4702 18.361 24.803 19.0235 24.9888 19.6967C25.3368 20.9529 24.1203 21.0054 23.9667 22.0323C23.8709 22.6798 24.656 23.5483 25.0106 24.01C25.7056 24.9145 26.5409 25.6946 27.4834 26.2882C28.0229 26.6285 28.8943 27.2419 29.5125 26.9034C30.4644 26.382 30.3743 24.7769 31.7056 25.3201C32.3949 25.6008 33.0624 26.0058 33.7204 26.3604C34.7378 26.9075 34.6903 27.4744 34.3026 28.652C34.5927 27.7721 34.0124 29.5319 34.3026 28.652Z" fill="#017BFF"/>
</g>
</g>
</g>
<defs>
<filter id="filter0_d_5_25443" x="-4.76837e-07" y="0" width="54" height="54" filterUnits="userSpaceOnUse" color-interpolation-filters="sRGB">
<feFlood flood-opacity="0" result="BackgroundImageFix"/>
<feColorMatrix in="SourceAlpha" type="matrix" values="0 0 0 0 0 0 0 0 0 0 0 0 0 0 0 0 0 0 127 0" result="hardAlpha"/>
<feOffset dy="4"/>
<feGaussianBlur stdDeviation="3.5"/>
<feComposite in2="hardAlpha" operator="out"/>
<feColorMatrix type="matrix" values="0 0 0 0 0 0 0 0 0 0.482353 0 0 0 0 1 0 0 0 0.12 0"/>
<feBlend mode="normal" in2="BackgroundImageFix" result="effect1_dropShadow_5_25443"/>
<feBlend mode="normal" in="SourceGraphic" in2="effect1_dropShadow_5_25443" result="shape"/>
</filter>
</defs>
</svg>
